<svg width="69" height="72" xmlns="http://www.w3.org/2000/svg" xmlns:xlink="http://www.w3.org/1999/xlink" xml:space="preserve" overflow="hidden"><defs><clipPath id="clip0"><rect x="604" y="316" width="69" height="72"/></clipPath><clipPath id="clip1"><rect x="604" y="316" width="69" height="72"/></clipPath><clipPath id="clip2"><rect x="604" y="316" width="69" height="71"/></clipPath><clipPath id="clip3"><rect x="604" y="316" width="69" height="71"/></clipPath></defs><g clip-path="url(#clip0)" transform="translate(-604 -316)"><g clip-path="url(#clip1)"><g clip-path="url(#clip2)"><g clip-path="url(#clip3)"><path d="M39.6044 42.0932C42.7768 42.0932 45.6366 40.1828 46.8484 37.2536 48.0641 34.3244 47.3925 30.9552 45.1502 28.713 42.9079 26.4707 39.5387 25.7992 36.6096 27.011 33.6804 28.2228 31.77 31.0826 31.77 34.251 31.7739 38.5773 35.2781 42.0855 39.6044 42.0932ZM39.6044 27.8988 39.6044 27.8949C42.1786 27.8949 44.498 29.4425 45.4822 31.8199 46.4663 34.1973 45.9221 36.9296 44.1044 38.7512 42.2828 40.5689 39.5504 41.1131 37.1731 40.129 34.7997 39.141 33.2481 36.8253 33.2481 34.2512 33.2558 30.7431 36.0963 27.8988 39.6044 27.8949ZM73.1071 47.9519 73.1109 47.9481C73.1071 43.8649 71.1581 40.0288 67.8622 37.6207 67.5188 36.3548 66.5424 35.3591 65.2803 34.9886L66.1487 33.4835C66.5346 32.8158 66.3031 31.959 65.6315 31.5731L65.3575 31.4149 65.8168 30.616 65.8206 30.616C65.948 30.3998 65.9827 30.1413 65.9171 29.8981 65.8515 29.6589 65.6933 29.4543 65.4772 29.3308L63.7945 28.3544C63.3469 28.0997 62.7757 28.2541 62.5132 28.7017L62.0501 29.5006 61.7761 29.3424C61.1046 28.9603 60.2516 29.1919 59.8657 29.8595L54.5668 39.0332C54.1809 39.7086 54.4125 40.5615 55.0801 40.9513L55.3503 41.1056 54.8872 41.9084 54.8872 41.9122C54.6325 42.3599 54.7868 42.935 55.2345 43.1936L56.9171 44.1661C57.0599 44.2433 57.2182 44.2858 57.3803 44.2858 57.7199 44.2858 58.0286 44.1082 58.2023 43.8188L58.6654 43.0199 58.9394 43.1781 58.9356 43.1781C59.6071 43.5602 60.46 43.3286 60.8498 42.661L61.6332 41.2986 61.6332 41.3025C62.6135 42.2442 64.026 42.5877 65.3266 42.1901 66.8819 43.5409 67.8236 45.4667 67.9393 47.5237 68.0551 49.5807 67.3296 51.5953 65.9364 53.1119 64.5393 54.6287 62.5904 55.5125 60.5295 55.5665 58.4686 55.6205 56.4733 54.8371 54.999 53.3976L56.2378 53.3976C56.8669 53.3976 57.3763 52.8881 57.3763 52.2591L57.3763 50.5957C57.3763 49.9667 56.8669 49.4573 56.2378 49.4573L53.3279 49.4573C52.5213 45.7176 49.4918 42.8655 45.7097 42.2867 45.5244 42.2597 45.3392 42.3021 45.1848 42.4063 41.8155 44.6833 37.4005 44.6833 34.0314 42.4063 33.877 42.3021 33.6879 42.2597 33.5065 42.2867 29.0258 42.9736 25.7107 46.8136 25.6875 51.3445L25.6875 61.5682C25.6875 61.877 25.8805 62.151 26.1699 62.259 28.0687 62.9692 30.0215 63.5365 32.0052 63.9572L29.3615 68.5382C28.9023 69.3294 28.9023 70.3058 29.3577 71.1008 29.8169 71.8959 30.6621 72.3822 31.5806 72.3822L43.0818 72.3822C44.0003 72.386 44.8455 71.8959 45.3047 71.1008 45.764 70.3097 45.764 69.3294 45.3047 68.5382L43.02 64.5785 43.0162 64.5785C46.4433 64.2389 49.8124 63.4632 53.0423 62.2629 53.3317 62.1548 53.5247 61.877 53.5247 61.5682L53.5247 58.7702C54.1576 59.1678 54.8214 59.5074 55.5122 59.7891L54.7442 62.7337C53.7524 62.7415 52.9535 63.5519 52.9612 64.5399 52.965 65.5317 53.7678 66.3345 54.7596 66.3345L66.5186 66.3345C67.5105 66.3345 68.3171 65.5317 68.3209 64.5399 68.3248 63.548 67.5259 62.7415 66.534 62.7337L65.7004 59.5421C70.2158 57.4464 73.1065 52.9233 73.1103 47.949ZM63.5244 29.9093 64.2692 30.3416 64.0763 30.6735 63.3353 30.2412ZM57.1873 42.6099 56.4425 42.1776 56.6354 41.8457 57.3803 42.278ZM60.4832 38.5962C60.4832 39.0477 60.5642 39.4954 60.7224 39.916L59.6071 41.8534 58.7889 41.3826 58.7349 41.3517 56.7474 40.2054 56.7165 40.19 55.8867 39.7114 61.1085 30.6729 61.9343 31.1515 61.9498 31.1631 61.9652 31.1708 63.9682 32.3286 63.9759 32.3325 63.9797 32.3363 64.8211 32.8226 63.6286 34.8912C61.8147 35.1884 60.4832 36.7553 60.4832 38.5962ZM64.2383 40.8732 64.2344 40.8693C63.0072 40.8693 61.9999 39.8929 61.9651 38.6618 61.9265 37.4345 62.8759 36.3963 64.1032 36.323L64.1418 36.323C64.1727 36.323 64.2036 36.3192 64.2345 36.3192 65.4926 36.3192 66.5115 37.338 66.5115 38.5962 66.5115 39.8504 65.4927 40.8693 64.2345 40.8693ZM55.8983 51.9189 46.3658 51.915 46.3658 50.9348 55.8983 50.9348ZM34.3207 52.521 39.1989 52.521 39.1989 52.5171C39.8009 53.0883 40.6384 53.343 41.4566 53.2118L41.4566 53.7791C41.4566 53.8524 41.3949 53.9142 41.3215 53.9142L33.3405 53.9142C33.2672 53.9142 33.2054 53.8524 33.2054 53.7791L33.2054 52.656C33.2054 52.5789 33.2672 52.5171 33.3405 52.5171ZM35.0771 51.039C35.2083 50.7302 35.5093 50.5334 35.8413 50.5334 36.1732 50.5334 36.4742 50.7302 36.6054 51.039ZM41.032 51.7645C40.5419 51.7645 40.1058 51.4712 39.9167 51.0197 39.7314 50.5681 39.8356 50.051 40.1791 49.7037 40.5264 49.3602 41.0436 49.256 41.4951 49.4451 41.9428 49.6304 42.2399 50.0703 42.2399 50.5566 42.2399 51.2243 41.6996 51.7646 41.0319 51.7646ZM34.8532 61.7837 34.8532 55.3966 39.8086 55.3966 39.8086 61.7837C39.8086 61.9149 39.8433 62.0423 39.9089 62.1542L41.1516 64.3116 41.1555 64.3154 42.1821 66.0907C41.2057 65.7781 40.2948 65.2841 39.4999 64.6319 38.0989 63.42 36.3314 62.7138 34.4828 62.6251L34.7568 62.1543 34.7529 62.1543C34.8186 62.0423 34.8533 61.915 34.8533 61.7838ZM44.0229 70.3591C43.8338 70.7026 43.4711 70.911 43.0813 70.9033L31.5801 70.9033C31.1903 70.9033 30.8353 70.6949 30.6423 70.3591 30.4493 70.0234 30.4493 69.6104 30.6423 69.2785L33.5754 64.1996C35.7714 63.8098 37.1684 64.7978 38.6427 65.8437L38.6427 65.8399C39.8661 66.9127 41.406 67.5573 43.0308 67.6769L43.0964 67.6769 44.0226 69.2786 44.0187 69.2747C44.2233 69.6105 44.2233 70.0273 44.0226 70.3592ZM52.0465 61.0427 52.0465 61.0466C48.8703 62.1812 45.5589 62.8952 42.2014 63.1615L41.2906 61.583 41.2906 55.3965 41.3214 55.3965C42.2129 55.3965 42.9346 54.6709 42.9385 53.7794L42.9385 52.6564C42.9385 52.5908 42.9346 52.5252 42.9269 52.4634 43.5946 51.7996 43.8686 50.8348 43.6447 49.9202 43.4209 49.0055 42.7378 48.2722 41.8386 47.9905 40.9394 47.7088 39.9592 47.9172 39.2528 48.5385 38.5466 49.1638 38.2185 50.1092 38.3884 51.0393L38.1298 51.0393C37.9677 49.897 36.9913 49.0518 35.8412 49.0518 34.6911 49.0518 33.7148 49.897 33.5526 51.0393L33.3404 51.0393C32.4489 51.0393 31.7233 51.761 31.7233 52.6564L31.7233 53.7794C31.7233 54.6709 32.4489 55.3965 33.3404 55.3965L33.3712 55.3965 33.3712 61.5868 32.7846 62.6017C30.8781 62.2274 28.9987 61.7064 27.1693 61.0465L27.1693 51.3441C27.1886 47.6507 29.8207 44.49 33.4485 43.7953 37.2036 46.192 42.0085 46.192 45.7637 43.7953 48.7046 44.3549 51.0587 46.5586 51.8074 49.457L46.0261 49.457C45.397 49.457 44.8877 49.9664 44.8877 50.5954L44.8877 52.2588C44.8877 52.8879 45.3971 53.3973 46.0261 53.3973L48.7662 53.3973C49.5419 55.0452 50.6573 56.5078 52.0466 57.6849ZM65.9632 64.2112 66.5267 64.2112 66.519 64.2112C66.6039 64.2112 66.6888 64.2459 66.7467 64.3038 66.8084 64.3656 66.8432 64.4466 66.8432 64.5315 66.8432 64.6164 66.8084 64.7013 66.7467 64.7592 66.6888 64.821 66.6039 64.8518 66.519 64.8518L54.76 64.8518C54.6751 64.8518 54.594 64.821 54.5323 64.7592 54.4744 64.7013 54.4396 64.6164 54.4396 64.5315 54.4396 64.4466 54.4744 64.3656 54.5323 64.3038 54.594 64.2459 54.6751 64.2112 54.76 64.2112ZM56.2763 62.7292 56.9208 60.2631 56.917 60.267C59.3483 60.9385 61.9187 60.8767 64.3153 60.0894L65.0061 62.7292ZM60.3287 59.2481C57.77 59.2481 55.2883 58.3836 53.2854 56.7897 53.2622 56.7666 53.2429 56.7511 53.2159 56.7318 52.0813 55.8133 51.1319 54.6787 50.4295 53.3974L53.0384 53.3974C54.5551 55.4313 56.8553 56.7357 59.3754 57.002 61.8994 57.2644 64.4196 56.4655 66.3261 54.7944 68.2365 53.1233 69.3595 50.7305 69.429 48.1949 69.4985 45.6555 68.5066 43.2087 66.6889 41.4334 67.2678 40.9355 67.6807 40.2717 67.8737 39.5307 71.3586 42.6568 72.5551 47.6121 70.884 51.9843 69.2091 56.3569 65.014 59.2476 60.3284 59.2476Z" fill="#000000" fill-rule="nonzero" fill-opacity="1" transform="matrix(1 0 0 1.01119 590.324 302.561)"/><text fill="#000000" fill-opacity="1" font-family="Helvetica,Helvetica_MSFontService,sans-serif" font-style="normal" font-variant="normal" font-weight="700" font-stretch="normal" font-size="5" text-anchor="start" direction="ltr" writing-mode="lr-tb" unicode-bidi="normal" text-decoration="none" transform="matrix(0.987987 0 0 0.999042 590.324 420)">Created by littlestar23</text><text fill="#000000" fill-opacity="1" font-family="Helvetica,Helvetica_MSFontService,sans-serif" font-style="normal" font-variant="normal" font-weight="700" font-stretch="normal" font-size="5" text-anchor="start" direction="ltr" writing-mode="lr-tb" unicode-bidi="normal" text-decoration="none" transform="matrix(0.987987 0 0 0.999042 590.324 425)">from Noun Project</text></g></g></g></g></svg>